<svg width="15" height="15" viewBox="0 0 15 15" fill="none" xmlns="http://www.w3.org/2000/svg">
<path opacity="0.1" fill-rule="evenodd" clip-rule="evenodd" d="M0 7.77786C0 3.8505 3.18375 0.666748 7.11111 0.666748C11.0385 0.666748 14.2222 3.8505 14.2222 7.77786C14.2222 11.7052 11.0385 14.889 7.11111 14.889C3.18375 14.889 0 11.7052 0 7.77786Z" fill="white"/>
<path fill-rule="evenodd" clip-rule="evenodd" d="M6.89824 6.44681L6.91316 6.69287L6.66446 6.66274C5.75918 6.54724 4.9683 6.15555 4.2968 5.49771L3.96851 5.17131L3.88395 5.41235C3.70489 5.94966 3.81929 6.51711 4.19235 6.89875C4.39131 7.10966 4.34654 7.13979 4.00333 7.01425C3.88395 6.97408 3.7795 6.94395 3.76955 6.95901C3.73473 6.99416 3.85411 7.45113 3.94862 7.63191C4.07794 7.883 4.34157 8.12906 4.63006 8.27468L4.87379 8.39018L4.5853 8.3952C4.30675 8.3952 4.2968 8.40022 4.32665 8.50568C4.42613 8.83209 4.81908 9.17858 5.2568 9.32923L5.56519 9.43468L5.29659 9.59538C4.89866 9.82637 4.4311 9.95693 3.96354 9.96698C3.7397 9.972 3.55566 9.99209 3.55566 10.0071C3.55566 10.0574 4.1625 10.3386 4.51566 10.4491C5.57514 10.7755 6.83358 10.6349 7.77865 10.0775C8.45015 9.68074 9.12165 8.89235 9.43502 8.12906C9.60414 7.7223 9.77326 6.9791 9.77326 6.62256C9.77326 6.39157 9.78818 6.36144 10.0667 6.08525C10.2309 5.92455 10.3851 5.7488 10.4149 5.69858C10.4647 5.60317 10.4597 5.60317 10.206 5.68854C9.78321 5.83919 9.72352 5.8191 9.93243 5.59313C10.0866 5.43243 10.2707 5.14118 10.2707 5.05581C10.2707 5.04075 10.1961 5.06585 10.1115 5.11105C10.022 5.16126 9.823 5.23659 9.67378 5.28178L9.40518 5.36715L9.16145 5.20144C9.02715 5.11105 8.83813 5.01062 8.73865 4.98049C8.48497 4.91018 8.09699 4.92023 7.86819 5.00057C7.24643 5.22655 6.85348 5.80906 6.89824 6.44681Z" fill="white"/>
</svg>
