<svg width="15" height="15" viewBox="0 0 15 15" fill="none" xmlns="http://www.w3.org/2000/svg">
<path opacity="0.1" fill-rule="evenodd" clip-rule="evenodd" d="M0.666504 7.77786C0.666504 3.8505 3.85026 0.666748 7.77761 0.666748C11.705 0.666748 14.8887 3.8505 14.8887 7.77786C14.8887 11.7052 11.705 14.889 7.77761 14.889C3.85026 14.889 0.666504 11.7052 0.666504 7.77786Z" fill="white"/>
<path fill-rule="evenodd" clip-rule="evenodd" d="M11.5705 7.77269C11.5705 8.02917 11.5444 8.2853 11.4931 8.53497C11.4431 8.7787 11.3691 9.018 11.272 9.24675C11.1772 9.47145 11.0596 9.68799 10.9222 9.88992C10.7868 10.0906 10.6309 10.2788 10.4596 10.4504C10.2879 10.6213 10.099 10.7768 9.89843 10.9128C9.69583 11.0492 9.47898 11.1667 9.25414 11.2619C9.02506 11.3584 8.78522 11.4324 8.54169 11.4823C8.29169 11.5338 8.03463 11.56 7.77777 11.56C7.52072 11.56 7.26368 11.5338 7.01403 11.4823C6.77014 11.4324 6.53031 11.3584 6.3014 11.2619C6.07658 11.1667 5.85953 11.0492 5.65693 10.9128C5.45636 10.7768 5.26746 10.6213 5.09616 10.4504C4.92467 10.2788 4.76873 10.0906 4.63317 9.88992C4.4965 9.68799 4.3787 9.47144 4.28352 9.24675C4.18647 9.018 4.11221 8.77869 4.06202 8.53497C4.01129 8.2853 3.98535 8.02917 3.98535 7.77269C3.98535 7.51601 4.01127 7.25933 4.06204 7.01021C4.11223 6.76647 4.18648 6.52681 4.28353 6.29843C4.37872 6.07357 4.49651 5.85684 4.63318 5.65489C4.76875 5.45406 4.92469 5.26616 5.09617 5.09436C5.26748 4.92348 5.45638 4.76834 5.65694 4.63261C5.85954 4.49557 6.0766 4.37815 6.30142 4.28272C6.53032 4.18598 6.77014 4.11184 7.01405 4.06228C7.26369 4.01125 7.52074 3.98535 7.77779 3.98535C8.03464 3.98535 8.29169 4.01125 8.54171 4.06228C8.78523 4.11185 9.02506 4.186 9.25416 4.28272C9.47898 4.37814 9.69584 4.49557 9.89844 4.63261C10.099 4.76834 10.2879 4.92348 10.4596 5.09436C10.6309 5.26616 10.7868 5.45406 10.9222 5.65489C11.0596 5.85684 11.1772 6.07358 11.272 6.29843C11.3691 6.52681 11.4431 6.76647 11.4931 7.01021C11.5444 7.25933 11.5705 7.51601 11.5705 7.77269ZM6.39583 4.8473C5.49263 5.2732 4.81852 6.10426 4.60832 7.10583C4.69371 7.10657 6.04341 7.12359 7.59848 6.711C7.03791 5.71645 6.43899 4.90483 6.39583 4.8473ZM7.86683 7.20903C6.19916 7.70758 4.59888 7.67171 4.54148 7.6695C4.54054 7.70426 4.53888 7.73791 4.53888 7.77268C4.53888 8.60355 4.85278 9.36101 5.36874 9.93375C5.36762 9.93208 6.25398 8.36186 8.00184 7.79747C8.04406 7.78341 8.08703 7.77083 8.12962 7.75863C8.04833 7.57482 7.95961 7.39063 7.86683 7.20903ZM9.91676 5.34532C9.34654 4.84323 8.59781 4.53867 7.77776 4.53867C7.5146 4.53867 7.25921 4.57048 7.01457 4.62928C7.06308 4.69439 7.67146 5.50029 8.22537 6.5159C9.44748 6.0584 9.90879 5.35714 9.91676 5.34532ZM8.3504 8.29455C8.34319 8.29694 8.33597 8.299 8.32892 8.30158C6.41793 8.96682 5.79387 10.3075 5.78711 10.3221C6.33697 10.7491 7.02663 11.0067 7.77778 11.0067C8.22631 11.0067 8.65356 10.9155 9.04228 10.7504C8.99431 10.4678 8.80616 9.47735 8.3504 8.29455ZM9.58767 10.4549C10.3149 9.96482 10.8314 9.18665 10.9755 8.28529C10.9088 8.26384 10.0027 7.97738 8.95725 8.14475C9.38209 9.31054 9.5547 10.26 9.58767 10.4549ZM8.47467 6.99783C8.54984 7.15207 8.62264 7.30904 8.68986 7.46681C8.71376 7.5234 8.73709 7.57888 8.75987 7.63435C9.87251 7.49454 10.9687 7.72977 11.0155 7.73937C11.0081 6.97268 10.7335 6.26902 10.279 5.71813C10.2729 5.7268 9.75344 6.47632 8.47467 6.99783Z" fill="white"/>
</svg>
