<svg width="11" height="12" viewBox="0 0 11 12" fill="none" xmlns="http://www.w3.org/2000/svg">
<g clip-path="url(#clip0_235_267)">
<path fill-rule="evenodd" clip-rule="evenodd" d="M10.4254 1.0191C10.5462 1.13983 10.5871 1.31905 10.5307 1.4802L7.41955 10.3691C7.35935 10.5411 7.20025 10.6589 7.01817 10.6663C6.83609 10.6738 6.66793 10.5693 6.59392 10.4028L4.88557 6.55897L1.04177 4.85062C0.875248 4.77661 0.770775 4.60845 0.778204 4.42637C0.785632 4.24429 0.903456 4.08519 1.07546 4.02499L9.96435 0.91388C10.1255 0.857478 10.3047 0.898375 10.4254 1.0191ZM5.75239 6.32069L6.9509 9.01734L9.04829 3.02479L5.75239 6.32069ZM8.41975 2.39625L2.4272 4.49364L5.12385 5.69215L8.41975 2.39625Z" fill="white"/>
</g>
<defs>
<clipPath id="clip0_235_267">
<rect width="10.6667" height="10.6667" fill="white" transform="translate(0.333496 0.444458)"/>
</clipPath>
</defs>
</svg>
