<svg width="15" height="15" viewBox="0 0 15 15" fill="none" xmlns="http://www.w3.org/2000/svg">
<path opacity="0.1" fill-rule="evenodd" clip-rule="evenodd" d="M0.333496 7.77786C0.333496 3.8505 3.51725 0.666748 7.44461 0.666748C11.372 0.666748 14.5557 3.8505 14.5557 7.77786C14.5557 11.7052 11.372 14.889 7.44461 14.889C3.51725 14.889 0.333496 11.7052 0.333496 7.77786Z" fill="white"/>
<path fill-rule="evenodd" clip-rule="evenodd" d="M10.4079 5.3333C10.7343 5.42286 10.9913 5.68674 11.0785 6.02186C11.237 6.62921 11.237 7.89646 11.237 7.89646C11.237 7.89646 11.237 9.16366 11.0785 9.77106C10.9913 10.1062 10.7343 10.3701 10.4079 10.4597C9.81641 10.6224 7.44445 10.6224 7.44445 10.6224C7.44445 10.6224 5.07248 10.6224 4.48097 10.4597C4.15459 10.3701 3.89756 10.1062 3.81033 9.77106C3.65186 9.16366 3.65186 7.89646 3.65186 7.89646C3.65186 7.89646 3.65186 6.62921 3.81033 6.02186C3.89756 5.68674 4.15459 5.42286 4.48097 5.3333C5.07248 5.17053 7.44445 5.17053 7.44445 5.17053C7.44445 5.17053 9.81641 5.17053 10.4079 5.3333ZM6.73334 6.82977V9.20014L8.62964 8.015L6.73334 6.82977Z" fill="white"/>
</svg>
