<svg width="15" height="15" viewBox="0 0 15 15" fill="none" xmlns="http://www.w3.org/2000/svg">
<path opacity="0.1" fill-rule="evenodd" clip-rule="evenodd" d="M0.333496 7.77786C0.333496 3.8505 3.51725 0.666748 7.44461 0.666748C11.372 0.666748 14.5557 3.8505 14.5557 7.77786C14.5557 11.7052 11.372 14.889 7.44461 14.889C3.51725 14.889 0.333496 11.7052 0.333496 7.77786Z" fill="white"/>
<path fill-rule="evenodd" clip-rule="evenodd" d="M7.4448 3.98535C6.41479 3.98535 6.28552 3.98986 5.88098 4.00827C5.47722 4.02675 5.20162 4.09068 4.96047 4.18446C4.71103 4.28133 4.49943 4.41092 4.28862 4.6218C4.07766 4.83261 3.94808 5.04421 3.85089 5.29357C3.75686 5.5348 3.69286 5.81048 3.67469 6.21408C3.6566 6.61862 3.65186 6.74797 3.65186 7.77798C3.65186 8.808 3.65644 8.93687 3.67477 9.34142C3.69334 9.74517 3.75726 10.0208 3.85097 10.2619C3.94792 10.5114 4.0775 10.723 4.28839 10.9338C4.49911 11.1447 4.71071 11.2746 4.96 11.3715C5.2013 11.4653 5.47698 11.5292 5.88066 11.5477C6.28521 11.5661 6.41439 11.5706 7.44433 11.5706C8.47442 11.5706 8.6033 11.5661 9.00784 11.5477C9.4116 11.5292 9.68751 11.4653 9.92882 11.3715C10.1782 11.2746 10.3895 11.1447 10.6002 10.9338C10.8112 10.723 10.9407 10.5114 11.0379 10.262C11.1312 10.0208 11.1952 9.7451 11.2141 9.3415C11.2323 8.93695 11.237 8.808 11.237 7.77798C11.237 6.74797 11.2323 6.6187 11.2141 6.21415C11.1952 5.8104 11.1312 5.5348 11.0379 5.29365C10.9407 5.04421 10.8112 4.83261 10.6002 4.6218C10.3892 4.41084 10.1783 4.28126 9.92858 4.18446C9.6868 4.09068 9.41105 4.02675 9.00729 4.00827C8.60274 3.98986 8.47395 3.98535 7.44362 3.98535H7.4448ZM7.10456 4.6688C7.20554 4.66865 7.31821 4.6688 7.44479 4.6688C8.45742 4.6688 8.57744 4.67244 8.97733 4.69061C9.34711 4.70752 9.5478 4.76931 9.68149 4.82122C9.85848 4.88996 9.98467 4.97214 10.1173 5.10488C10.2501 5.23762 10.3322 5.36404 10.4011 5.54103C10.4531 5.67456 10.5149 5.87526 10.5318 6.24504C10.5499 6.64485 10.5539 6.76495 10.5539 7.7771C10.5539 8.78926 10.5499 8.90936 10.5318 9.30917C10.5148 9.67895 10.4531 9.87964 10.4011 10.0132C10.3324 10.1902 10.2501 10.3162 10.1173 10.4489C9.98459 10.5816 9.85856 10.6638 9.68149 10.7325C9.54796 10.7847 9.34711 10.8463 8.97733 10.8632C8.57752 10.8814 8.45742 10.8853 7.44479 10.8853C6.43208 10.8853 6.31205 10.8814 5.91225 10.8632C5.54247 10.8461 5.34177 10.7843 5.208 10.7324C5.03101 10.6637 4.90459 10.5815 4.77185 10.4488C4.63911 10.316 4.55694 10.1899 4.48804 10.0129C4.43612 9.87933 4.37426 9.67864 4.35743 9.30885C4.33925 8.90905 4.33562 8.78895 4.33562 7.77616C4.33562 6.76336 4.33925 6.6439 4.35743 6.24409C4.37434 5.87431 4.43612 5.67362 4.48804 5.53993C4.55678 5.36294 4.63911 5.23651 4.77185 5.10377C4.90459 4.97103 5.03101 4.88886 5.208 4.81996C5.34169 4.76781 5.54247 4.70618 5.91225 4.68919C6.26212 4.67339 6.3977 4.66865 7.10456 4.66786V4.6688ZM9.46927 5.29854C9.218 5.29854 9.01415 5.50216 9.01415 5.7535C9.01415 6.00476 9.218 6.20862 9.46927 6.20862C9.72053 6.20862 9.92438 6.00476 9.92438 5.7535C9.92438 5.50224 9.72053 5.29854 9.46927 5.29854ZM7.44481 5.8303C6.3692 5.8303 5.49714 6.70237 5.49714 7.77797C5.49714 8.85358 6.3692 9.72525 7.44481 9.72525C8.52042 9.72525 9.39217 8.85358 9.39217 7.77797C9.39217 6.70237 8.52042 5.8303 7.44481 5.8303ZM7.4448 6.51376C8.14296 6.51376 8.70901 7.07973 8.70901 7.77797C8.70901 8.47613 8.14296 9.04218 7.4448 9.04218C6.74656 9.04218 6.18058 8.47613 6.18058 7.77797C6.18058 7.07973 6.74656 6.51376 7.4448 6.51376Z" fill="white"/>
</svg>
