<svg width="15" height="16" viewBox="0 0 15 16" fill="none" xmlns="http://www.w3.org/2000/svg">
<circle cx="7.44436" cy="8.00003" r="7.11111" fill="#C7EEFF"/>
<path d="M7.39578 11.0868C8.50342 11.0868 9.26731 10.4757 9.26731 9.60417V9.59722C9.26731 8.90278 8.77772 8.46528 8.03814 8.39583V8.37847C8.63883 8.25347 9.09022 7.84028 9.09022 7.21875V7.21181C9.09022 6.43403 8.42008 5.90278 7.38536 5.90278C6.37495 5.90278 5.69092 6.46528 5.618 7.3125L5.61453 7.35417H6.44786L6.45133 7.31944C6.49647 6.88889 6.85758 6.61458 7.38536 6.61458C7.92356 6.61458 8.22911 6.87847 8.22911 7.32986V7.33681C8.22911 7.77431 7.86106 8.08681 7.30897 8.08681H6.73606V8.75347H7.32981C7.9687 8.75347 8.35758 9.04514 8.35758 9.57292V9.57986C8.35758 10.0347 7.97217 10.3542 7.39231 10.3542C6.8055 10.3542 6.41661 10.059 6.368 9.65278L6.36453 9.61458H5.50689L5.51036 9.65625C5.57981 10.4965 6.29508 11.0868 7.39578 11.0868Z" fill="black"/>
</svg>
