<svg width="15" height="15" viewBox="0 0 15 15" fill="none" xmlns="http://www.w3.org/2000/svg">
<circle cx="7.44436" cy="7.66665" r="7.11111" fill="#C7EEFF"/>
<path d="M7.44439 10.7534C8.55203 10.7534 9.32633 10.0451 9.32633 9.01385V9.0069C9.32633 8.05551 8.63883 7.36454 7.68397 7.36454C7.1805 7.36454 6.76731 7.56246 6.54856 7.89926H6.5312L6.67008 6.38885H9.0312V5.65621H5.95481L5.71522 8.5694H6.49647C6.5555 8.45829 6.63883 8.36107 6.73258 8.28468C6.92356 8.12496 7.17008 8.03815 7.45481 8.03815C8.04161 8.03815 8.46175 8.44788 8.46175 9.02079V9.02774C8.46175 9.61454 8.04856 10.0243 7.45133 10.0243C6.92356 10.0243 6.54161 9.70135 6.4687 9.28121L6.46522 9.2569H5.62495L5.62842 9.30204C5.69439 10.1319 6.40272 10.7534 7.44439 10.7534Z" fill="black"/>
</svg>
